<?xml version="1.0" encoding="utf-8"?>
<!-- Generator: Adobe Illustrator 16.0.4, SVG Export Plug-In . SVG Version: 6.00 Build 0)  -->
<!DOCTYPE svg PUBLIC "-//W3C//DTD SVG 1.1//EN" "http://www.w3.org/Graphics/SVG/1.1/DTD/svg11.dtd" [
	<!ENTITY ns_extend "http://ns.adobe.com/Extensibility/1.0/">
	<!ENTITY ns_ai "http://ns.adobe.com/AdobeIllustrator/10.0/">
	<!ENTITY ns_graphs "http://ns.adobe.com/Graphs/1.0/">
	<!ENTITY ns_vars "http://ns.adobe.com/Variables/1.0/">
	<!ENTITY ns_imrep "http://ns.adobe.com/ImageReplacement/1.0/">
	<!ENTITY ns_sfw "http://ns.adobe.com/SaveForWeb/1.0/">
	<!ENTITY ns_custom "http://ns.adobe.com/GenericCustomNamespace/1.0/">
	<!ENTITY ns_adobe_xpath "http://ns.adobe.com/XPath/1.0/">
]>
<svg version="1.1" xmlns:x="&ns_extend;" xmlns:i="&ns_ai;" xmlns:graph="&ns_graphs;"
	 xmlns="http://www.w3.org/2000/svg" xmlns:xlink="http://www.w3.org/1999/xlink" x="0px" y="0px" width="200px" height="200px"
	 viewBox="0 0 200 200" enable-background="new 0 0 200 200" xml:space="preserve">
<metadata>
	<sfw  xmlns="&ns_sfw;">
		<slices></slices>
		<sliceSourceBounds  height="200" width="200" x="-0.5" y="0.5" bottomLeftOrigin="true"></sliceSourceBounds>
	</sfw>
</metadata>
<g id="Layer_1">
	<path fill="#1D7CB3" d="M12,200h176c6.6,0,12-5.4,12-12V12c0-6.6-5.4-12-12-12H12C5.4,0,0,5.4,0,12v176C0,194.6,5.4,200,12,200z"/>
	<path fill="#3C97D3" d="M200,60L200,60c-0.6-5.6-5.3-10-11-10H12.5C5.9,50,0,44.6,0,38V12C0,5.4,5.4,0,12,0h176c6.6,0,12,5.4,12,12
		V60z"/>
	<path opacity="0.15" fill="#010101" enable-background="new    " d="M10,200h4V0h-4V200z"/>
	<path fill="#FFFFFF" d="M200,20c0-5.5-4.5-10-10-10H14c-2.2,0-4,1.8-4,4v22c0,2.2,1.8,4,4,4h174c6.6,0,12,5.4,12,12V22h-0.2
		C199.9,21.4,200,20.7,200,20z"/>
	<path opacity="0.2" fill="#95A5A6" enable-background="new    " d="M200,26.9c0,0-0.4-6.9,0-0.7c-0.2-2-1.6-7.2-10-7.2H10v2h180
		c6.4,0,9.6,7,10,13.2c-0.2-2-1.6-7.2-10-7.2H10v2h180c6.6,0,10,7.4,10,14V26.9z"/>
	<path fill="#B52E25" d="M160,200h20V50h-20V200z"/>
	<path fill="#CE3634" d="M160,50h20V0h-20V50z"/>
</g>
<g id="Layer_2">
	<path fill="#FFFFFF" d="M126,101.4c0,19-34.4,75.8-34.4,75.8s-34.4-56.8-34.4-75.8c0-19,15.4-34.4,34.4-34.4S126,82.4,126,101.4z"
		/>
	<circle fill="#1D7CB3" cx="91.4" cy="103.3" r="19.2"/>
</g>
</svg>
